<?xml version="1.0" encoding="utf-8"?>
<svg version="1.1" xmlns:xlink="http://www.w3.org/1999/xlink" width="24px" height="29px" xmlns="http://www.w3.org/2000/svg">
  <g transform="matrix(1 0 0 1 -56 -192 )">
    <path d="M 7.63636363636364 15.6153846153846  L 9.81818181818182 26.7692307692308  L 11.4545454545455 18.9615384615385  L 9.81818181818182 16.7307692307692  L 7.63636363636364 15.6153846153846  Z M 12.5454545454545 18.9615384615385  L 14.1818181818182 26.7692307692308  L 16.3636363636364 15.6153846153846  L 14.1818181818182 16.7307692307692  L 12.5454545454545 18.9615384615385  Z M 16.8409090909091 9.63762019230769  C 16.8636363636364 9.53305288461539  16.8863636363636 9.37620192307692  16.9090909090909 9.16706730769231  C 16.8863636363636 9.12059294871795  16.8636363636364 9.08573717948718  16.8409090909091 9.0625  C 16.7272727272727 8.96955128205128  16.1818181818182 8.92307692307692  15.2045454545455 8.92307692307692  C 14.4090909090909 8.92307692307692  13.4602272727273 9.03345352564102  12.3579545454545 9.25420673076923  C 12.2784090909091 9.27744391025641  12.1590909090909 9.2890625  12 9.2890625  C 11.8409090909091 9.2890625  11.7215909090909 9.27744391025641  11.6420454545455 9.25420673076923  C 10.5397727272727 9.03345352564102  9.59090909090909 8.92307692307692  8.79545454545455 8.92307692307692  C 7.81818181818182 8.92307692307692  7.27272727272727 8.96955128205128  7.15909090909091 9.0625  C 7.13636363636364 9.08573717948718  7.11363636363637 9.12059294871795  7.09090909090909 9.16706730769231  C 7.11363636363637 9.37620192307692  7.13636363636364 9.53305288461539  7.15909090909091 9.63762019230769  C 7.18181818181818 9.67247596153846  7.22443181818182 9.71023637820513  7.28693181818182 9.75090144230769  C 7.34943181818182 9.79156650641026  7.39204545454546 9.8525641025641  7.41477272727273 9.93389423076923  C 7.4375 9.98036858974359  7.48011363636364 10.0994591346154  7.54261363636364 10.2911658653846  C 7.60511363636364 10.4828725961538  7.64488636363636 10.6019631410256  7.66193181818182 10.6484375  C 7.67897727272727 10.6949118589744  7.72159090909091 10.7936698717949  7.78977272727273 10.9447115384615  C 7.85795454545455 11.0957532051282  7.90625 11.1945112179487  7.93465909090909 11.2409855769231  C 7.96306818181818 11.2874599358974  8.01420454545455 11.3687900641026  8.08806818181818 11.4849759615385  C 8.16193181818182 11.6011618589744  8.23011363636364 11.6795873397436  8.29261363636364 11.7202524038462  C 8.35511363636364 11.7609174679487  8.43465909090909 11.8161057692308  8.53125 11.8858173076923  C 8.62784090909091 11.9555288461538  8.72727272727273 12.0020032051282  8.82954545454546 12.0252403846154  C 8.93181818181818 12.0484775641026  9.04829545454546 12.0717147435897  9.17897727272727 12.0949519230769  C 9.30965909090909 12.1181891025641  9.44886363636364 12.1298076923077  9.59659090909091 12.1298076923077  C 10.0056818181818 12.1298076923077  10.3409090909091 12.0571915064103  10.6022727272727 11.9119591346154  C 10.8636363636364 11.7667267628205  11.0482954545455 11.5924479166667  11.15625 11.3891225961538  C 11.2642045454545 11.185797275641  11.3465909090909 10.9853766025641  11.4034090909091 10.7878605769231  C 11.4602272727273 10.590344551282  11.5255681818182 10.4189703525641  11.5994318181818 10.2737379807692  C 11.6732954545455 10.1285056089744  11.7727272727273 10.0558894230769  11.8977272727273 10.0558894230769  L 12.1022727272727 10.0558894230769  C 12.2272727272727 10.0558894230769  12.3267045454545 10.1285056089744  12.4005681818182 10.2737379807692  C 12.4744318181818 10.4189703525641  12.5397727272727 10.590344551282  12.5965909090909 10.7878605769231  C 12.6534090909091 10.9853766025641  12.7357954545455 11.185797275641  12.84375 11.3891225961538  C 12.9517045454545 11.5924479166667  13.1363636363636 11.7667267628205  13.3977272727273 11.9119591346154  C 13.6590909090909 12.0571915064103  13.9943181818182 12.1298076923077  14.4034090909091 12.1298076923077  C 14.5511363636364 12.1298076923077  14.6903409090909 12.1181891025641  14.8210227272727 12.0949519230769  C 14.9517045454545 12.0717147435897  15.0681818181818 12.0484775641026  15.1704545454545 12.0252403846154  C 15.2727272727273 12.0020032051282  15.3721590909091 11.9555288461538  15.46875 11.8858173076923  C 15.5653409090909 11.8161057692308  15.6448863636364 11.7609174679487  15.7073863636364 11.7202524038462  C 15.7698863636364 11.6795873397436  15.8380681818182 11.6011618589744  15.9119318181818 11.4849759615385  C 15.9857954545455 11.3687900641026  16.0369318181818 11.2874599358974  16.0653409090909 11.2409855769231  C 16.09375 11.1945112179487  16.1420454545455 11.0957532051282  16.2102272727273 10.9447115384615  C 16.2784090909091 10.7936698717949  16.3210227272727 10.6949118589744  16.3380681818182 10.6484375  C 16.3551136363636 10.6019631410256  16.3948863636364 10.4828725961538  16.4573863636364 10.2911658653846  C 16.5198863636364 10.0994591346154  16.5625 9.98036858974359  16.5852272727273 9.93389423076923  C 16.6079545454545 9.8525641025641  16.6505681818182 9.79156650641026  16.7130681818182 9.75090144230769  C 16.7755681818182 9.71023637820513  16.8181818181818 9.67247596153846  16.8409090909091 9.63762019230769  Z M 23.8636363636364 21.8981370192308  C 23.9545454545455 22.7288661858974  24 23.591546474359  24 24.4861778846154  C 24 25.8920272435897  23.5852272727273 26.9957932692308  22.7556818181818 27.7974759615385  C 21.9261363636364 28.5991586538462  20.8238636363636 29  19.4488636363636 29  L 4.55113636363636 29  C 3.17613636363636 29  2.07386363636364 28.5991586538462  1.24431818181818 27.7974759615385  C 0.414772727272727 26.9957932692308  0 25.8920272435897  0 24.4861778846154  C 0 23.7774439102564  0.0255681818181818 23.0919471153846  0.0767045454545455 22.4296875  C 0.127840909090909 21.7674278846154  0.235795454545455 21.0383613782051  0.400568181818182 20.2424879807692  C 0.565340909090909 19.4466145833333  0.778409090909091 18.7291666666667  1.03977272727273 18.0901442307692  C 1.30113636363636 17.4511217948718  1.66193181818182 16.849859775641  2.12215909090909 16.2863581730769  C 2.58238636363636 15.7228565705128  3.11363636363636 15.2900641025641  3.71590909090909 14.9879807692308  L 2.18181818181818 11.1538461538462  L 5.82954545454545 11.1538461538462  C 5.57954545454546 10.4102564102564  5.45454545454545 9.66666666666666  5.45454545454545 8.92307692307692  C 5.45454545454545 8.78365384615385  5.46590909090909 8.59775641025641  5.48863636363636 8.36538461538462  C 3.28409090909091 7.90064102564102  2.18181818181818 7.34294871794872  2.18181818181818 6.69230769230769  C 2.18181818181818 6.03004807692308  3.375 5.45492788461539  5.76136363636364 4.96694711538462  C 5.95454545454546 4.24659455128205  6.24715909090909 3.46814903846154  6.63920454545455 2.63161057692308  C 7.03125 1.79507211538461  7.43181818181818 1.1328125  7.84090909090909 0.644831730769229  C 8.20454545454546 0.214943910256412  8.63636363636364 0  9.13636363636364 0  C 9.47727272727273 0  9.95454545454546 0.180088141025644  10.5681818181818 0.540264423076924  C 11.1818181818182 0.900440705128203  11.6590909090909 1.08052884615385  12 1.08052884615385  C 12.3409090909091 1.08052884615385  12.8181818181818 0.900440705128203  13.4318181818182 0.540264423076924  C 14.0454545454545 0.180088141025644  14.5227272727273 0  14.8636363636364 0  C 15.3636363636364 0  15.7954545454545 0.214943910256412  16.1590909090909 0.644831730769229  C 16.5681818181818 1.1328125  16.96875 1.79507211538461  17.3607954545455 2.63161057692308  C 17.7528409090909 3.46814903846154  18.0454545454545 4.24659455128205  18.2386363636364 4.96694711538462  C 20.625 5.45492788461539  21.8181818181818 6.03004807692308  21.8181818181818 6.69230769230769  C 21.8181818181818 7.34294871794872  20.7159090909091 7.90064102564102  18.5113636363636 8.36538461538462  C 18.5909090909091 9.30649038461539  18.4772727272727 10.2359775641026  18.1704545454545 11.1538461538462  L 21.8181818181818 11.1538461538462  L 20.4204545454545 15.0751201923077  C 21.1363636363636 15.4585336538462  21.7471590909091 16.0191306089744  22.2528409090909 16.7569110576923  C 22.7585227272727 17.4946915064103  23.1306818181818 18.3283253205128  23.3693181818182 19.2578125  C 23.6079545454545 20.1872996794872  23.7727272727273 21.0674078525641  23.8636363636364 21.8981370192308  Z " fill-rule="nonzero" fill="#ff0000" stroke="none" transform="matrix(1 0 0 1 56 192 )" />
  </g>
</svg>