<?xml version="1.0" encoding="utf-8"?>
<svg version="1.1" xmlns:xlink="http://www.w3.org/1999/xlink" width="12px" height="16px" xmlns="http://www.w3.org/2000/svg">
  <g transform="matrix(1 0 0 1 -202 -183 )">
    <path d="M 6.6535552193646 12.0535714285714  L 6.66263237518911 9.40178571428572  L 8.00605143721634 10.7232142857143  L 6.6535552193646 12.0535714285714  Z M 6.66263237518911 6.59821428571429  L 6.6535552193646 3.94642857142857  L 8.00605143721634 5.27678571428571  L 6.66263237518911 6.59821428571429  Z M 5.47352496217852 9.41964285714286  L 5.47352496217852 14.875  L 9.68532526475038 10.7321428571429  L 6.90771558245083 8  L 9.68532526475038 5.26785714285714  L 5.47352496217852 1.125  L 5.47352496217852 6.58035714285714  L 3.1588502269289 4.30357142857143  L 2.31467473524962 5.13392857142857  L 5.21936459909228 8  L 2.31467473524962 10.8660714285714  L 3.1588502269289 11.6964285714286  L 5.47352496217852 9.41964285714286  Z M 11.7095310136157 4.73660714285714  C 11.9031770045386 5.66815476190476  12 6.75595238095238  12 8  C 12 9.24404761904762  11.9031770045386 10.3318452380952  11.7095310136157 11.2633928571429  C 11.5158850226929 12.1949404761905  11.2511346444781 12.9598214285714  10.9152798789713 13.5580357142857  C 10.5794251134644 14.15625  10.1543116490166 14.639880952381  9.63993948562784 15.0089285714286  C 9.12556732223903 15.3779761904762  8.57639939485628 15.6354166666667  7.99243570347958 15.78125  C 7.40847201210287 15.9270833333333  6.74432677760968 16  6 16  C 5.25567322239032 16  4.59152798789713 15.9270833333333  4.00756429652042 15.78125  C 3.42360060514372 15.6354166666667  2.87443267776097 15.3779761904762  2.36006051437216 15.0089285714286  C 1.84568835098336 14.639880952381  1.42057488653555 14.15625  1.08472012102874 13.5580357142857  C 0.748865355521936 12.9598214285714  0.484114977307111 12.1949404761905  0.290468986384266 11.2633928571429  C 0.0968229954614221 10.3318452380952  0 9.24404761904762  0 8  C 0 6.75595238095238  0.0968229954614221 5.66815476190476  0.290468986384266 4.73660714285714  C 0.484114977307111 3.80505952380952  0.748865355521936 3.04017857142857  1.08472012102874 2.44196428571429  C 1.42057488653555 1.84375  1.84568835098336 1.36011904761905  2.36006051437216 0.991071428571429  C 2.87443267776097 0.622023809523808  3.42360060514372 0.364583333333332  4.00756429652042 0.21875  C 4.59152798789713 0.0729166666666679  5.25567322239032 0  6 0  C 6.74432677760968 0  7.40847201210287 0.0729166666666679  7.99243570347958 0.21875  C 8.57639939485628 0.364583333333332  9.12556732223903 0.622023809523808  9.63993948562784 0.991071428571429  C 10.1543116490166 1.36011904761905  10.5794251134644 1.84375  10.9152798789713 2.44196428571429  C 11.2511346444781 3.04017857142857  11.5158850226929 3.80505952380952  11.7095310136157 4.73660714285714  Z " fill-rule="nonzero" fill="#333333" stroke="none" transform="matrix(1 0 0 1 202 183 )" />
  </g>
</svg>