<?xml version="1.0" encoding="utf-8"?>
<svg version="1.1" xmlns:xlink="http://www.w3.org/1999/xlink" width="36px" height="36px" xmlns="http://www.w3.org/2000/svg">
  <g transform="matrix(1 0 0 1 -10 -11 )">
    <path d="M 28 11  C 38.08 11  46 18.92  46 29  C 46 39.08  38.08 47  28 47  C 17.92 47  10 39.08  10 29  C 10 18.92  17.92 11  28 11  Z " fill-rule="nonzero" fill="#ffffff" stroke="none" />
    <path d="M 28 11.5  C 37.8 11.5  45.5 19.2  45.5 29  C 45.5 38.8  37.8 46.5  28 46.5  C 18.2 46.5  10.5 38.8  10.5 29  C 10.5 19.2  18.2 11.5  28 11.5  Z " stroke-width="1" stroke="#797979" fill="none" />
  </g>
</svg>