<?xml version="1.0" encoding="utf-8"?>
<svg version="1.1" xmlns:xlink="http://www.w3.org/1999/xlink" width="320px" height="126px" xmlns="http://www.w3.org/2000/svg">
  <g transform="matrix(1 0 0 1 -31 -167 )">
    <path d="M 31 167  L 351 167  L 351 293  L 31 293  L 31 167  " fill-rule="nonzero" fill="#cccccc" stroke="none" />
    <path d="M 40 176  L 342 176  L 342 284  L 40 284  L 40 176  " fill-rule="nonzero" fill="#ffffff" stroke="none" />
    <path d="M 206.85 204.8  C 201.558 204.8  197.4 200.642  197.4 195.35  C 197.4 190.058  201.558 185.9  206.85 185.9  C 212.142 185.9  216.3 190.058  216.3 195.35  C 216.3 200.642  212.142 204.8  206.85 204.8  " fill-rule="nonzero" fill="#cccccc" stroke="none" />
    <path d="M 43 281  L 43 224.9  L 117 199.4  L 220.6 256.9025  L 279.8 214.7  L 339 256.9025  L 339 281  L 43 281  " fill-rule="nonzero" fill="#169bd5" stroke="none" />
  </g>
</svg>