<?xml version="1.0" encoding="utf-8"?>
<svg version="1.1" xmlns:xlink="http://www.w3.org/1999/xlink" width="26px" height="24px" xmlns="http://www.w3.org/2000/svg">
  <g transform="matrix(1 0 0 1 -28 -10 )">
    <path d="M 11.9881164587047 7.8391959798995  C 12.5648643295702 7.27638190954774  12.853238265003 6.5929648241206  12.853238265003 5.78894472361809  C 12.853238265003 4.98492462311558  12.5648643295702 4.30150753768844  11.9881164587047 3.73869346733668  C 11.4113685878392 3.17587939698492  10.7110318875025 2.89447236180904  9.88710635769459 2.89447236180904  C 9.06318082788671 2.89447236180904  8.36284412755001 3.17587939698492  7.78609625668449 3.73869346733668  C 7.20934838581898 4.30150753768844  6.92097445038621 4.98492462311558  6.92097445038621 5.78894472361809  C 6.92097445038621 6.21105527638191  7.0188156070509 6.62814070351759  7.21449792038027 7.04020100502513  C 6.79223608635373 6.84924623115578  6.3648247177659 6.75376884422111  5.93226381461676 6.75376884422111  C 5.10833828480887 6.75376884422111  4.40800158447217 7.03517587939698  3.83125371360665 7.59798994974874  C 3.25450584274114 8.1608040201005  2.96613190730838 8.84422110552764  2.96613190730838 9.64824120603015  C 2.96613190730838 10.4522613065327  3.25450584274114 11.1356783919598  3.83125371360665 11.6984924623116  C 4.40800158447217 12.2613065326633  5.10833828480887 12.5427135678392  5.93226381461676 12.5427135678392  C 6.75618934442464 12.5427135678392  7.45652604476134 12.2613065326633  8.03327391562686 11.6984924623116  C 8.61002178649237 11.1356783919598  8.89839572192513 10.4522613065327  8.89839572192513 9.64824120603015  C 8.89839572192513 9.22613065326633  8.80055456526045 8.80904522613065  8.60487225193108 8.39698492462312  C 9.02713408595762 8.58793969849246  9.45454545454546 8.68341708542714  9.88710635769459 8.68341708542714  C 10.7110318875025 8.68341708542714  11.4113685878392 8.40201005025125  11.9881164587047 7.8391959798995  Z M 25.5597147950089 15.78391959799  C 25.853238265003 16.1155778894472  26 16.321608040201  26 16.4020100502513  C 26 16.572864321608  25.7476728064963 16.9045226130653  25.243018419489 17.3969849246231  C 24.7383640324817 17.8894472361809  24.3984947514359 18.1356783919598  24.2234105763518 18.1356783919598  C 24.1307189542484 18.1356783919598  23.9839572192513 18.0552763819096  23.7831253713607 17.894472361809  C 23.58229352347 17.7336683417085  23.3943355119826 17.5678391959799  23.2192513368984 17.3969849246231  C 23.0441671618142 17.2261306532663  22.8459100812042 17.0251256281407  22.6244800950683 16.7939698492462  C 22.4030501089325 16.5628140703518  22.2768865121806 16.4321608040201  22.2459893048128 16.4020100502513  L 20.7629233511586 17.8492462311558  L 24.1616161616162 21.1658291457286  C 24.4499900970489 21.4472361809045  24.5941770647653 21.7889447236181  24.5941770647653 22.1909547738693  C 24.5941770647653 22.6130653266332  24.3933452168746 23.0201005025126  23.9916815210933 23.4120603015075  C 23.5900178253119 23.8040201005025  23.1729055258467 24  22.7403446226976 24  C 22.3283818577936 24  21.9782135076253 23.8592964824121  21.6898395721925 23.5778894472362  L 11.3238265002971 13.4623115577889  C 9.51119033471975 14.7788944723618  7.63161021984551 15.4371859296482  5.68508615567439 15.4371859296482  C 4.00633788869083 15.4371859296482  2.63913646266587 14.9221105527638  1.58348187759952 13.891959798995  C 0.527827292533175 12.8618090452261  0 11.5276381909548  0 9.8894472361809  C 0 8.28140703517588  0.48920578332343 6.70854271356784  1.46761734997029 5.17085427135678  C 2.44602891661715 3.63316582914573  3.72311348781937 2.38693467336683  5.29887106357695 1.4321608040201  C 6.87462863933452 0.477386934673365  8.48643295702119 0  10.134284016637 0  C 11.8130322836205 0  13.1802337096455 0.51507537688442  14.2358882947118 1.54522613065327  C 15.2915428797782 2.57537688442211  15.8193701723114 3.90954773869347  15.8193701723114 5.54773869346734  C 15.8193701723114 7.44723618090452  15.1447811447811 9.28140703517588  13.7956030897207 11.0502512562814  L 19.2798573975045 16.4020100502513  L 20.7629233511586 14.9547738693467  C 20.7320261437909 14.9246231155779  20.5981382451971 14.8015075376884  20.3612596553773 14.5854271356784  C 20.1243810655575 14.3693467336683  19.9183996831056 14.1758793969849  19.7433155080214 14.0050251256281  C 19.5682313329372 13.8341708542714  19.3982966924143 13.6507537688442  19.2335115864528 13.4547738693467  C 19.0687264804912 13.2587939698492  18.9863339275104 13.1155778894472  18.9863339275104 13.0251256281407  C 18.9863339275104 12.8542713567839  19.2386611210141 12.5226130653266  19.7433155080214 12.0301507537688  C 20.2479698950287 11.5376884422111  20.5878391760745 11.2914572864322  20.7629233511586 11.2914572864322  C 20.8968112497524 11.2914572864322  21.0152505446623 11.3417085427136  21.1182412358883 11.4422110552764  C 21.1800356506239 11.5025125628141  21.4169142404437 11.7261306532663  21.8288770053476 12.1130653266332  C 22.2408397702515 12.5  22.6631016042781 12.8994974874372  23.0956625074272 13.3115577889447  C 23.5282234105764 13.7236180904523  23.9736581501287 14.1557788944724  24.4319667260844 14.608040201005  C 24.89027530204 15.0603015075377  25.2661913250149 15.4522613065327  25.5597147950089 15.78391959799  Z " fill-rule="nonzero" fill="#ffffff" stroke="none" transform="matrix(1 0 0 1 28 10 )" />
  </g>
</svg>