<?xml version="1.0" encoding="utf-8"?>
<svg version="1.1" xmlns:xlink="http://www.w3.org/1999/xlink" width="38px" height="24px" xmlns="http://www.w3.org/2000/svg">
  <g transform="matrix(1 0 0 1 -21 -10 )">
    <path d="M 28.2137276785714 18.8020833333333  C 31.0481770833333 17.1145833333333  33.405505952381 14.8472222222222  35.2857142857143 12  C 33.1369047619048 8.72222222222222  30.4438244047619 6.27083333333333  27.2064732142857 4.64583333333333  C 28.0688244047619 6.09027777777778  28.5 7.65277777777778  28.5 9.33333333333333  C 28.5 11.9027777777778  27.5704985119048 14.1006944444444  25.7114955357143 15.9270833333333  C 23.8524925595238 17.7534722222222  21.6153273809524 18.6666666666667  19 18.6666666666667  C 16.3846726190476 18.6666666666667  14.1475074404762 17.7534722222222  12.2885044642857 15.9270833333333  C 10.4295014880952 14.1006944444444  9.5 11.9027777777778  9.5 9.33333333333333  C 9.5 7.65277777777778  9.9311755952381 6.09027777777778  10.7935267857143 4.64583333333333  C 7.5561755952381 6.27083333333333  4.86309523809524 8.72222222222222  2.71428571428571 12  C 4.59449404761905 14.8472222222222  6.95182291666667 17.1145833333333  9.78627232142857 18.8020833333333  C 12.6207217261905 20.4895833333333  15.6919642857143 21.3333333333333  19 21.3333333333333  C 22.3080357142857 21.3333333333333  25.3792782738095 20.4895833333333  28.2137276785714 18.8020833333333  Z M 19.7209821428571 4.70833333333333  C 19.9188988095238 4.51388888888889  20.0178571428571 4.27777777777778  20.0178571428571 4  C 20.0178571428571 3.72222222222222  19.9188988095238 3.48611111111111  19.7209821428571 3.29166666666667  C 19.5230654761905 3.09722222222222  19.2827380952381 3  19 3  C 17.2328869047619 3  15.7167038690476 3.62152777777778  14.4514508928571 4.86458333333333  C 13.1861979166667 6.10763888888889  12.5535714285714 7.59722222222222  12.5535714285714 9.33333333333333  C 12.5535714285714 9.61111111111111  12.6525297619048 9.84722222222222  12.8504464285714 10.0416666666667  C 13.0483630952381 10.2361111111111  13.2886904761905 10.3333333333333  13.5714285714286 10.3333333333333  C 13.8541666666667 10.3333333333333  14.094494047619 10.2361111111111  14.2924107142857 10.0416666666667  C 14.4903273809524 9.84722222222222  14.5892857142857 9.61111111111111  14.5892857142857 9.33333333333333  C 14.5892857142857 8.13888888888889  15.0204613095238 7.11805555555556  15.8828125 6.27083333333333  C 16.7451636904762 5.42361111111111  17.7842261904762 5  19 5  C 19.2827380952381 5  19.5230654761905 4.90277777777778  19.7209821428571 4.70833333333333  Z M 37.5758928571429 10.5625  C 37.858630952381 11.0486111111111  38 11.5277777777778  38 12  C 38 12.4722222222222  37.858630952381 12.9513888888889  37.5758928571429 13.4375  C 35.5967261904762 16.6319444444444  32.9354538690476 19.1909722222222  29.5920758928571 21.1145833333333  C 26.2486979166667 23.0381944444444  22.718005952381 24  19 24  C 15.281994047619 24  11.7513020833333 23.0347222222222  8.40792410714286 21.1041666666667  C 5.06454613095238 19.1736111111111  2.40327380952381 16.6180555555556  0.424107142857143 13.4375  C 0.141369047619048 12.9513888888889  0 12.4722222222222  0 12  C 0 11.5277777777778  0.141369047619048 11.0486111111111  0.424107142857143 10.5625  C 2.40327380952381 7.38194444444444  5.06454613095238 4.82638888888889  8.40792410714286 2.89583333333333  C 11.7513020833333 0.965277777777776  15.281994047619 0  19 0  C 22.718005952381 0  26.2486979166667 0.965277777777776  29.5920758928571 2.89583333333333  C 32.9354538690476 4.82638888888889  35.5967261904762 7.38194444444444  37.5758928571429 10.5625  Z " fill-rule="nonzero" fill="#ffffff" stroke="none" transform="matrix(1 0 0 1 21 10 )" />
  </g>
</svg>