<?xml version="1.0" encoding="utf-8"?>
<svg version="1.1" xmlns:xlink="http://www.w3.org/1999/xlink" width="17px" height="19px" xmlns="http://www.w3.org/2000/svg">
  <defs>
    <mask fill="white" id="clip44">
      <path d="M 2.475 9.20833333333333  L 2.78595849238837 9.20833252040095  C 1.97795346490056 8.24400988160562  1.5 7.01689288703999  1.5 5.66666666666667  C 1.5 2.49333333333332  4.14 0  7.5 0  C 10.86 0  13.5 2.49333333333332  13.5 5.66666666666667  C 13.5 7.01689288703999  13.0220465350994 8.24400988160562  12.2140412066768 9.20833333333333  L 12.525 9.20833333333333  L 15 17  L 0 17  L 2.475 9.20833333333333  Z " fill-rule="evenodd" />
    </mask>
    <filter x="56px" y="226px" width="17px" height="19px" filterUnits="userSpaceOnUse" id="filter45">
      <feOffset dx="1" dy="1" in="SourceAlpha" result="shadowOffsetInner" />
      <feGaussianBlur stdDeviation="0.5" in="shadowOffsetInner" result="shadowGaussian" />
      <feComposite in2="shadowGaussian" operator="atop" in="SourceAlpha" result="shadowComposite" />
      <feColorMatrix type="matrix" values="0 0 0 0 0  0 0 0 0 0  0 0 0 0 0  0 0 0 0.349019607843137 0  " in="shadowComposite" />
    </filter>
    <g id="widget46">
      <path d="M 2.475 9.20833333333333  L 2.78595849238837 9.20833252040095  C 1.97795346490056 8.24400988160562  1.5 7.01689288703999  1.5 5.66666666666667  C 1.5 2.49333333333332  4.14 0  7.5 0  C 10.86 0  13.5 2.49333333333332  13.5 5.66666666666667  C 13.5 7.01689288703999  13.0220465350994 8.24400988160562  12.2140412066768 9.20833333333333  L 12.525 9.20833333333333  L 15 17  L 0 17  L 2.475 9.20833333333333  Z " fill-rule="nonzero" fill="#ffffff" stroke="none" transform="matrix(1 0 0 1 56 226 )" />
      <path d="M 2.475 9.20833333333333  L 2.78595849238837 9.20833252040095  C 1.97795346490056 8.24400988160562  1.5 7.01689288703999  1.5 5.66666666666667  C 1.5 2.49333333333332  4.14 0  7.5 0  C 10.86 0  13.5 2.49333333333332  13.5 5.66666666666667  C 13.5 7.01689288703999  13.0220465350994 8.24400988160562  12.2140412066768 9.20833333333333  L 12.525 9.20833333333333  L 15 17  L 0 17  L 2.475 9.20833333333333  Z " stroke-width="2" stroke="#797979" fill="none" transform="matrix(1 0 0 1 56 226 )" mask="url(#clip44)" />
    </g>
  </defs>
  <g transform="matrix(1 0 0 1 -56 -226 )">
    <use xlink:href="#widget46" filter="url(#filter45)" />
    <use xlink:href="#widget46" />
  </g>
</svg>