<?xml version="1.0" encoding="utf-8"?>
<svg version="1.1" xmlns:xlink="http://www.w3.org/1999/xlink" width="15px" height="14px" xmlns="http://www.w3.org/2000/svg">
  <g transform="matrix(1 0 0 1 -283 -141 )">
    <path d="M 2.14285714285714 1.96  C 3.53794642857143 1.96  4.68191964285714 2.61625  5.57477678571429 3.92875  C 5.23995535714286 4.46541666666667  4.85770089285714 5.26166666666666  4.42801339285714 6.3175  C 4.30524553571429 6.055  4.20200892857143 5.84354166666667  4.11830357142857 5.683125  C 4.03459821428571 5.52270833333333  3.92159598214286 5.3375  3.779296875 5.1275  C 3.63699776785714 4.9175  3.49469866071429 4.75270833333333  3.35239955357143 4.633125  C 3.21010044642857 4.51354166666667  3.03431919642857 4.41145833333333  2.82505580357143 4.326875  C 2.61579241071429 4.24229166666667  2.38839285714286 4.2  2.14285714285714 4.2  L 0.267857142857143 4.2  C 0.189732142857143 4.2  0.125558035714286 4.17375  0.0753348214285714 4.12125  C 0.0251116071428571 4.06875  0 4.00166666666667  0 3.92  L 0 2.24  C 0 2.15833333333333  0.0251116071428571 2.09125  0.0753348214285714 2.03875  C 0.125558035714286 1.98625  0.189732142857143 1.96  0.267857142857143 1.96  L 2.14285714285714 1.96  Z M 14.9246651785714 10.71875  C 14.9748883928571 10.77125  15 10.8383333333333  15 10.92  C 15 11.0016666666667  14.9748883928571 11.06875  14.9246651785714 11.12125  L 12.24609375 13.92125  C 12.1958705357143 13.97375  12.1316964285714 14  12.0535714285714 14  C 11.9810267857143 14  11.9182477678571 13.9722916666667  11.865234375 13.916875  C 11.8122209821429 13.8614583333333  11.7857142857143 13.7958333333333  11.7857142857143 13.72  L 11.7857142857143 12.04  C 11.6071428571429 12.04  11.3699776785714 12.0414583333333  11.07421875 12.044375  C 10.7784598214286 12.0472916666667  10.5524553571429 12.0502083333333  10.3962053571429 12.053125  C 10.2399553571429 12.0560416666667  10.0362723214286 12.053125  9.78515625 12.044375  C 9.53404017857143 12.035625  9.3359375 12.0210416666667  9.19084821428572 12.000625  C 9.04575892857143 11.9802083333333  8.8671875 11.9495833333333  8.65513392857143 11.90875  C 8.44308035714286 11.8679166666667  8.26729910714286 11.8139583333333  8.12779017857143 11.746875  C 7.98828125 11.6797916666667  7.82645089285714 11.5966666666667  7.64229910714286 11.4975  C 7.45814732142857 11.3983333333333  7.29352678571429 11.2816666666667  7.1484375 11.1475  C 7.00334821428571 11.0133333333333  6.84988839285714 10.8572916666667  6.68805803571429 10.679375  C 6.52622767857143 10.5014583333333  6.36997767857143 10.29875  6.21930803571429 10.07125  C 6.54854910714286 9.52875  6.92801339285714 8.7325  7.35770089285714 7.6825  C 7.48046875 7.945  7.58370535714286 8.15645833333333  7.66741071428571 8.316875  C 7.75111607142857 8.47729166666667  7.86411830357143 8.6625  8.00641741071428 8.8725  C 8.14871651785714 9.0825  8.291015625 9.24729166666667  8.43331473214286 9.366875  C 8.57561383928572 9.48645833333333  8.75139508928572 9.58854166666667  8.96065848214286 9.673125  C 9.169921875 9.75770833333333  9.39732142857143 9.8  9.64285714285714 9.8  L 11.7857142857143 9.8  L 11.7857142857143 8.12  C 11.7857142857143 8.03833333333333  11.8108258928571 7.97125  11.8610491071429 7.91875  C 11.9112723214286 7.86625  11.9754464285714 7.84  12.0535714285714 7.84  C 12.1205357142857 7.84  12.1875 7.86916666666667  12.2544642857143 7.9275  L 14.9246651785714 10.71875  Z M 14.9246651785714 2.87875  C 14.9748883928571 2.93125  15 2.99833333333333  15 3.08  C 15 3.16166666666667  14.9748883928571 3.22875  14.9246651785714 3.28125  L 12.24609375 6.08125  C 12.1958705357143 6.13375  12.1316964285714 6.16  12.0535714285714 6.16  C 11.9810267857143 6.16  11.9182477678571 6.13229166666667  11.865234375 6.076875  C 11.8122209821429 6.02145833333333  11.7857142857143 5.95583333333333  11.7857142857143 5.88  L 11.7857142857143 4.2  L 9.64285714285714 4.2  C 9.375 4.2  9.13225446428572 4.24375  8.91462053571428 4.33125  C 8.69698660714286 4.41875  8.50446428571429 4.55  8.33705357142857 4.725  C 8.16964285714286 4.9  8.02734375 5.079375  7.91015625 5.263125  C 7.79296875 5.446875  7.66741071428571 5.67291666666667  7.53348214285714 5.94125  C 7.35491071428571 6.30291666666667  7.13727678571429 6.80166666666667  6.88058035714286 7.4375  C 6.71875 7.8225  6.58063616071429 8.14625  6.46623883928571 8.40875  C 6.35184151785714 8.67125  6.201171875 8.9775  6.01422991071429 9.3275  C 5.82728794642857 9.6775  5.64871651785714 9.96916666666667  5.478515625 10.2025  C 5.30831473214286 10.4358333333333  5.10184151785714 10.6779166666667  4.85909598214286 10.92875  C 4.61635044642857 11.1795833333333  4.365234375 11.379375  4.10574776785714 11.528125  C 3.84626116071429 11.676875  3.54910714285714 11.799375  3.21428571428571 11.895625  C 2.87946428571429 11.991875  2.52232142857143 12.04  2.14285714285714 12.04  L 0.267857142857143 12.04  C 0.189732142857143 12.04  0.125558035714286 12.01375  0.0753348214285714 11.96125  C 0.0251116071428571 11.90875  0 11.8416666666667  0 11.76  L 0 10.08  C 0 9.99833333333333  0.0251116071428571 9.93125  0.0753348214285714 9.87875  C 0.125558035714286 9.82625  0.189732142857143 9.8  0.267857142857143 9.8  L 2.14285714285714 9.8  C 2.41071428571429 9.8  2.65345982142857 9.75625  2.87109375 9.66875  C 3.08872767857143 9.58125  3.28125 9.45  3.44866071428571 9.275  C 3.61607142857143 9.1  3.75837053571429 8.920625  3.87555803571429 8.736875  C 3.99274553571429 8.553125  4.11830357142857 8.32708333333333  4.25223214285714 8.05875  C 4.43080357142857 7.69708333333333  4.6484375 7.19833333333333  4.90513392857143 6.5625  C 5.06696428571429 6.1775  5.205078125 5.85375  5.31947544642857 5.59125  C 5.43387276785714 5.32875  5.58454241071429 5.0225  5.771484375 4.6725  C 5.95842633928571 4.3225  6.13699776785714 4.03083333333333  6.30719866071429 3.7975  C 6.47739955357143 3.56416666666667  6.68387276785714 3.32208333333333  6.92661830357143 3.07125  C 7.16936383928571 2.82041666666667  7.42047991071429 2.620625  7.67996651785714 2.471875  C 7.939453125 2.323125  8.23660714285714 2.200625  8.57142857142857 2.104375  C 8.90625 2.008125  9.26339285714286 1.96  9.64285714285714 1.96  L 11.7857142857143 1.96  L 11.7857142857143 0.28  C 11.7857142857143 0.198333333333332  11.8108258928571 0.13125  11.8610491071429 0.0787499999999999  C 11.9112723214286 0.0262499999999994  11.9754464285714 0  12.0535714285714 0  C 12.1205357142857 0  12.1875 0.0291666666666666  12.2544642857143 0.0874999999999997  L 14.9246651785714 2.87875  Z " fill-rule="nonzero" fill="#ffffff" stroke="none" transform="matrix(1 0 0 1 283 141 )" />
  </g>
</svg>