<?xml version="1.0" encoding="utf-8"?>
<svg version="1.1" xmlns:xlink="http://www.w3.org/1999/xlink" width="29px" height="24px" xmlns="http://www.w3.org/2000/svg">
  <g transform="matrix(1 0 0 1 -300 -382 )">
    <path d="M 24.204449789537 13.1761363636364  C 24.4369613148928 13.2670454545455  24.5532170775707 13.4318181818182  24.5532170775707 13.6704545454545  L 24.5532170775707 19.0909090909091  C 24.5532170775707 20.4431818181818  24.0620364802566 21.5994318181818  23.0796752856284 22.5596590909091  C 22.0973140910002 23.5198863636364  20.9144117057527 24  19.5309681298858 24  L 5.02224894768491 24  C 3.638805371818 24  2.45590298657046 23.5198863636364  1.47354179194227 22.5596590909091  C 0.491180597314091 21.5994318181818  0 20.4431818181818  0 19.0909090909091  L 0 4.90909090909091  C 0 3.55681818181818  0.491180597314091 2.40056818181818  1.47354179194227 1.44034090909091  C 2.45590298657046 0.480113636363634  3.638805371818 0  5.02224894768491 0  L 19.5309681298858 0  C 20.2633794347565 0  20.9434756464221 0.142045454545453  21.5712567648827 0.426136363636362  C 21.7456404088996 0.505681818181817  21.8502705953097 0.636363636363636  21.885147324113 0.818181818181817  C 21.9200240529164 1.01136363636364  21.8677089597114 1.17613636363636  21.7282020444979 1.3125  L 20.8737221888154 2.14772727272727  C 20.7574664261375 2.26136363636363  20.6237722990579 2.31818181818182  20.4726398075767 2.31818181818182  C 20.4377630787733 2.31818181818182  20.3854479855682 2.30681818181818  20.3156945279615 2.28409090909091  C 20.0483062738024 2.21590909090909  19.7867308077771 2.18181818181818  19.5309681298858 2.18181818181818  L 5.02224894768491 2.18181818181818  C 4.25496091401082 2.18181818181818  3.59811585488074 2.44886363636363  3.05171377029465 2.98295454545455  C 2.50531168570856 3.51704545454545  2.23211064341551 4.15909090909091  2.23211064341551 4.90909090909091  L 2.23211064341551 19.0909090909091  C 2.23211064341551 19.8409090909091  2.50531168570856 20.4829545454545  3.05171377029465 21.0170454545455  C 3.59811585488074 21.5511363636364  4.25496091401082 21.8181818181818  5.02224894768491 21.8181818181818  L 19.5309681298858 21.8181818181818  C 20.2982561635598 21.8181818181818  20.9551012226899 21.5511363636364  21.501503307276 21.0170454545455  C 22.0479053918621 20.4829545454545  22.3211064341551 19.8409090909091  22.3211064341551 19.0909090909091  L 22.3211064341551 14.7613636363636  C 22.3211064341551 14.6136363636364  22.3734215273602 14.4886363636364  22.4780517137703 14.3863636363636  L 23.5941070354781 13.2954545454545  C 23.7103627981559 13.1818181818182  23.8440569252355 13.125  23.9951894167168 13.125  C 24.0649428743235 13.125  24.1346963319302 13.1420454545455  24.204449789537 13.1761363636364  Z M 29 4.36363636363636  C 29 4.73863636363636  28.8604930847865 5.0625  28.5814792543596 5.33522727272727  L 14.3866506313891 19.2102272727273  C 14.1076368009621 19.4829545454545  13.7763078773301 19.6193181818182  13.3926638604931 19.6193181818182  C 13.009019843656 19.6193181818182  12.6776909200241 19.4829545454545  12.3986770895971 19.2102272727273  L 4.90018039687312 11.8806818181818  C 4.62116656644618 11.6079545454545  4.48165965123271 11.2840909090909  4.48165965123271 10.9090909090909  C 4.48165965123271 10.5340909090909  4.62116656644618 10.2102272727273  4.90018039687312 9.9375  L 6.81840048105833 8.0625  C 7.09741431148527 7.78977272727273  7.42874323511726 7.65340909090909  7.8123872519543 7.65340909090909  C 8.19603126879134 7.65340909090909  8.52736019242333 7.78977272727273  8.80637402285027 8.0625  L 13.3926638604931 12.5454545454545  L 24.6752856283824 1.51704545454546  C 24.9542994588094 1.24431818181818  25.2856283824414 1.10795454545454  25.6692723992784 1.10795454545454  C 26.0529164161155 1.10795454545454  26.3842453397474 1.24431818181818  26.6632591701744 1.51704545454546  L 28.5814792543596 3.39204545454546  C 28.8604930847865 3.66477272727273  29 3.98863636363636  29 4.36363636363636  Z " fill-rule="nonzero" fill="#333333" stroke="none" transform="matrix(1 0 0 1 300 382 )" />
  </g>
</svg>