<?xml version="1.0" encoding="utf-8"?>
<svg version="1.1" xmlns:xlink="http://www.w3.org/1999/xlink" width="24px" height="24px" xmlns="http://www.w3.org/2000/svg">
  <defs>
    <mask fill="white" id="clip36">
      <path d="M 12 0  C 18.6274169979695 0  24 5.37258300203048  24 12  C 24 18.6274169979695  18.6274169979695 24  12 24  C 5.37258300203048 24  0 18.6274169979695  0 12  C 0 9.89356003860166  0.554475173887569 7.82423051811767  1.60769515458674 6  L 12 12  L 10.6610887287102 0.0749290732669823  C 11.1056469444504 0.0250154073897647  11.5526484813668 0  12 0  Z M 17.7230769230769 12  C 17.7230769230769 15.2049230769231  15.2049230769231 17.7230769230769  12 17.7230769230769  C 8.79507692307692 17.7230769230769  6.27692307692308 15.2049230769231  6.27692307692308 12  C 6.27692307692308 8.79507692307692  8.79507692307692 6.27692307692308  12 6.27692307692308  C 15.2049230769231 6.27692307692308  17.7230769230769 8.79507692307692  17.7230769230769 12  Z M 8.09484162895928 12  C 8.09484162895928 14.1868886877828  9.81311131221719 15.9051583710407  12 15.9051583710407  C 14.1868886877828 15.9051583710407  15.9051583710407 14.1868886877828  15.9051583710407 12  C 15.9051583710407 9.81311131221719  14.1868886877828 8.09484162895928  12 8.09484162895928  C 9.81311131221719 8.09484162895928  8.09484162895928 9.81311131221719  8.09484162895928 12  Z " fill-rule="evenodd" />
    </mask>
  </defs>
  <g transform="matrix(1 0 0 1 -19 -14 )">
    <path d="M 12 0  C 18.6274169979695 0  24 5.37258300203048  24 12  C 24 18.6274169979695  18.6274169979695 24  12 24  C 5.37258300203048 24  0 18.6274169979695  0 12  C 0 9.89356003860166  0.554475173887569 7.82423051811767  1.60769515458674 6  L 12 12  L 10.6610887287102 0.0749290732669823  C 11.1056469444504 0.0250154073897647  11.5526484813668 0  12 0  Z M 17.7230769230769 12  C 17.7230769230769 15.2049230769231  15.2049230769231 17.7230769230769  12 17.7230769230769  C 8.79507692307692 17.7230769230769  6.27692307692308 15.2049230769231  6.27692307692308 12  C 6.27692307692308 8.79507692307692  8.79507692307692 6.27692307692308  12 6.27692307692308  C 15.2049230769231 6.27692307692308  17.7230769230769 8.79507692307692  17.7230769230769 12  Z M 8.09484162895928 12  C 8.09484162895928 14.1868886877828  9.81311131221719 15.9051583710407  12 15.9051583710407  C 14.1868886877828 15.9051583710407  15.9051583710407 14.1868886877828  15.9051583710407 12  C 15.9051583710407 9.81311131221719  14.1868886877828 8.09484162895928  12 8.09484162895928  C 9.81311131221719 8.09484162895928  8.09484162895928 9.81311131221719  8.09484162895928 12  Z " fill-rule="nonzero" fill="#ffffff" stroke="none" transform="matrix(1 0 0 1 19 14 )" />
    <path d="M 12 0  C 18.6274169979695 0  24 5.37258300203048  24 12  C 24 18.6274169979695  18.6274169979695 24  12 24  C 5.37258300203048 24  0 18.6274169979695  0 12  C 0 9.89356003860166  0.554475173887569 7.82423051811767  1.60769515458674 6  L 12 12  L 10.6610887287102 0.0749290732669823  C 11.1056469444504 0.0250154073897647  11.5526484813668 0  12 0  Z " stroke-width="2" stroke="#797979" fill="none" transform="matrix(1 0 0 1 19 14 )" mask="url(#clip36)" />
    <path d="M 17.7230769230769 12  C 17.7230769230769 15.2049230769231  15.2049230769231 17.7230769230769  12 17.7230769230769  C 8.79507692307692 17.7230769230769  6.27692307692308 15.2049230769231  6.27692307692308 12  C 6.27692307692308 8.79507692307692  8.79507692307692 6.27692307692308  12 6.27692307692308  C 15.2049230769231 6.27692307692308  17.7230769230769 8.79507692307692  17.7230769230769 12  Z " stroke-width="2" stroke="#797979" fill="none" transform="matrix(1 0 0 1 19 14 )" mask="url(#clip36)" />
    <path d="M 8.09484162895928 12  C 8.09484162895928 14.1868886877828  9.81311131221719 15.9051583710407  12 15.9051583710407  C 14.1868886877828 15.9051583710407  15.9051583710407 14.1868886877828  15.9051583710407 12  C 15.9051583710407 9.81311131221719  14.1868886877828 8.09484162895928  12 8.09484162895928  C 9.81311131221719 8.09484162895928  8.09484162895928 9.81311131221719  8.09484162895928 12  Z " stroke-width="2" stroke="#797979" fill="none" transform="matrix(1 0 0 1 19 14 )" mask="url(#clip36)" />
  </g>
</svg>