<?xml version="1.0" encoding="utf-8"?>
<svg version="1.1" xmlns:xlink="http://www.w3.org/1999/xlink" width="130px" height="130px" xmlns="http://www.w3.org/2000/svg">
  <defs>
    <mask fill="white" id="clip37">
      <path d="M 65 0  C 100.898508739002 0  130 29.1014912609984  130 65  C 130 100.898508739002  100.898508739002 130  65 130  C 29.1014912609984 130  0 100.898508739002  0 65  C 0 53.590116875759  3.003407191891 42.381248639804  8.7083487540115 32.5  L 65 65  L 57.7475639471801 0.405865813529488  C 60.1555876157731 0.135500123361226  62.5768459407367 0  65 0  Z M 96 65  C 96 82.36  82.36 96  65 96  C 47.64 96  34 82.36  34 65  C 34 47.64  47.64 34  65 34  C 82.36 34  96 47.64  96 65  Z M 43.8470588235294 65  C 43.8470588235294 76.8456470588235  53.1543529411765 86.1529411764706  65 86.1529411764706  C 76.8456470588235 86.1529411764706  86.1529411764706 76.8456470588235  86.1529411764706 65  C 86.1529411764706 53.1543529411765  76.8456470588235 43.8470588235294  65 43.8470588235294  C 53.1543529411765 43.8470588235294  43.8470588235294 53.1543529411765  43.8470588235294 65  Z " fill-rule="evenodd" />
    </mask>
  </defs>
  <g transform="matrix(1 0 0 1 -95 -84 )">
    <path d="M 65 0  C 100.898508739002 0  130 29.1014912609984  130 65  C 130 100.898508739002  100.898508739002 130  65 130  C 29.1014912609984 130  0 100.898508739002  0 65  C 0 53.590116875759  3.003407191891 42.381248639804  8.7083487540115 32.5  L 65 65  L 57.7475639471801 0.405865813529488  C 60.1555876157731 0.135500123361226  62.5768459407367 0  65 0  Z M 96 65  C 96 82.36  82.36 96  65 96  C 47.64 96  34 82.36  34 65  C 34 47.64  47.64 34  65 34  C 82.36 34  96 47.64  96 65  Z M 43.8470588235294 65  C 43.8470588235294 76.8456470588235  53.1543529411765 86.1529411764706  65 86.1529411764706  C 76.8456470588235 86.1529411764706  86.1529411764706 76.8456470588235  86.1529411764706 65  C 86.1529411764706 53.1543529411765  76.8456470588235 43.8470588235294  65 43.8470588235294  C 53.1543529411765 43.8470588235294  43.8470588235294 53.1543529411765  43.8470588235294 65  Z " fill-rule="nonzero" fill="#ffffff" stroke="none" transform="matrix(1 0 0 1 95 84 )" />
    <path d="M 65 0  C 100.898508739002 0  130 29.1014912609984  130 65  C 130 100.898508739002  100.898508739002 130  65 130  C 29.1014912609984 130  0 100.898508739002  0 65  C 0 53.590116875759  3.003407191891 42.381248639804  8.7083487540115 32.5  L 65 65  L 57.7475639471801 0.405865813529488  C 60.1555876157731 0.135500123361226  62.5768459407367 0  65 0  Z " stroke-width="2" stroke="#797979" fill="none" transform="matrix(1 0 0 1 95 84 )" mask="url(#clip37)" />
    <path d="M 96 65  C 96 82.36  82.36 96  65 96  C 47.64 96  34 82.36  34 65  C 34 47.64  47.64 34  65 34  C 82.36 34  96 47.64  96 65  Z " stroke-width="2" stroke="#797979" fill="none" transform="matrix(1 0 0 1 95 84 )" mask="url(#clip37)" />
    <path d="M 43.8470588235294 65  C 43.8470588235294 76.8456470588235  53.1543529411765 86.1529411764706  65 86.1529411764706  C 76.8456470588235 86.1529411764706  86.1529411764706 76.8456470588235  86.1529411764706 65  C 86.1529411764706 53.1543529411765  76.8456470588235 43.8470588235294  65 43.8470588235294  C 53.1543529411765 43.8470588235294  43.8470588235294 53.1543529411765  43.8470588235294 65  Z " stroke-width="2" stroke="#797979" fill="none" transform="matrix(1 0 0 1 95 84 )" mask="url(#clip37)" />
  </g>
</svg>