<?xml version="1.0" encoding="utf-8"?>
<svg version="1.1" xmlns:xlink="http://www.w3.org/1999/xlink" width="170px" height="170px" xmlns="http://www.w3.org/2000/svg">
  <defs>
    <linearGradient gradientUnits="userSpaceOnUse" x1="160" y1="64" x2="160" y2="234" id="LinearGradient38">
      <stop id="Stop39" stop-color="#33ffff" offset="0" />
      <stop id="Stop40" stop-color="#0099ff" offset="1" />
    </linearGradient>
  </defs>
  <g transform="matrix(1 0 0 1 -75 -64 )">
    <path d="M 160 68  C 205.36 68  241 103.64  241 149  C 241 194.36  205.36 230  160 230  C 114.64 230  79 194.36  79 149  C 79 103.64  114.64 68  160 68  Z " fill-rule="nonzero" fill="#ffffff" stroke="none" fill-opacity="0" />
    <path d="M 160 66.5  C 206.2 66.5  242.5 102.8  242.5 149  C 242.5 195.2  206.2 231.5  160 231.5  C 113.8 231.5  77.5 195.2  77.5 149  C 77.5 102.8  113.8 66.5  160 66.5  Z " stroke-width="5" stroke="url(#LinearGradient38)" fill="none" />
  </g>
</svg>