<?xml version="1.0" encoding="utf-8"?>
<svg version="1.1" xmlns:xlink="http://www.w3.org/1999/xlink" width="46px" height="46px" xmlns="http://www.w3.org/2000/svg">
  <defs>
    <linearGradient gradientUnits="userSpaceOnUse" x1="23" y1="0" x2="23" y2="46" id="LinearGradient33">
      <stop id="Stop34" stop-color="#33ffff" offset="0" />
      <stop id="Stop35" stop-color="#0099ff" offset="1" />
    </linearGradient>
  </defs>
  <g transform="matrix(1 0 0 1 -113 -47 )">
    <path d="M 11.7349759615385 34.6996527777778  C 12.4260817307692 35.365162037037  12.7716346153846 36.1682098765432  12.7716346153846 37.1087962962963  C 12.7716346153846 38.0493827160494  12.4260817307692 38.8524305555556  11.7349759615385 39.5179398148148  C 11.0438701923077 40.1834490740741  10.2099358974359 40.5162037037037  9.23317307692308 40.5162037037037  C 8.27483974358974 40.5162037037037  7.44551282051282 40.179012345679  6.74519230769231 39.5046296296296  C 6.04487179487179 38.8302469135802  5.69471153846154 38.0316358024691  5.69471153846154 37.1087962962963  C 5.69471153846154 36.1682098765432  6.04026442307692 35.365162037037  6.73137019230769 34.6996527777778  C 7.42247596153846 34.0341435185185  8.25641025641026 33.7013888888889  9.23317307692308 33.7013888888889  C 10.2099358974359 33.7013888888889  11.0438701923077 34.0341435185185  11.7349759615385 34.6996527777778  Z M 25.5018028846154 40.1834490740741  C 26.1929086538462 40.8489583333333  26.5384615384615 41.6520061728395  26.5384615384615 42.5925925925926  C 26.5384615384615 43.5331790123457  26.1929086538462 44.3362268518518  25.5018028846154 45.0017361111111  C 24.8106971153846 45.6672453703704  23.9767628205128 46  23 46  C 22.0232371794872 46  21.1893028846154 45.6672453703704  20.4981971153846 45.0017361111111  C 19.8070913461538 44.3362268518518  19.4615384615385 43.5331790123457  19.4615384615385 42.5925925925926  C 19.4615384615385 41.6520061728395  19.8070913461538 40.8489583333333  20.4981971153846 40.1834490740741  C 21.1893028846154 39.5179398148148  22.0232371794872 39.1851851851852  23 39.1851851851852  C 23.9767628205128 39.1851851851852  24.8106971153846 39.5179398148148  25.5018028846154 40.1834490740741  Z M 6.04026442307692 21.4427083333333  C 6.73137019230769 22.1082175925926  7.07692307692308 22.9112654320988  7.07692307692308 23.8518518518519  C 7.07692307692308 24.7924382716049  6.73137019230769 25.5954861111111  6.04026442307692 26.2609953703704  C 5.34915865384615 26.9265046296296  4.51522435897436 27.2592592592593  3.53846153846154 27.2592592592593  C 2.56169871794872 27.2592592592593  1.72776442307692 26.9265046296296  1.03665865384615 26.2609953703704  C 0.345552884615385 25.5954861111111  0 24.7924382716049  0 23.8518518518519  C 0 22.9112654320988  0.345552884615385 22.1082175925926  1.03665865384615 21.4427083333333  C 1.72776442307692 20.7771990740741  2.56169871794872 20.4444444444444  3.53846153846154 20.4444444444444  C 4.51522435897436 20.4444444444444  5.34915865384615 20.7771990740741  6.04026442307692 21.4427083333333  Z M 39.2686298076923 34.6996527777778  C 39.9597355769231 35.365162037037  40.3052884615385 36.1682098765432  40.3052884615385 37.1087962962963  C 40.3052884615385 38.0316358024691  39.9551282051282 38.8302469135802  39.2548076923077 39.5046296296296  C 38.5544871794872 40.179012345679  37.7251602564103 40.5162037037037  36.7668269230769 40.5162037037037  C 35.7900641025641 40.5162037037037  34.9561298076923 40.1834490740741  34.2650240384615 39.5179398148148  C 33.5739182692308 38.8524305555556  33.2283653846154 38.0493827160494  33.2283653846154 37.1087962962963  C 33.2283653846154 36.1682098765432  33.5739182692308 35.365162037037  34.2650240384615 34.6996527777778  C 34.9561298076923 34.0341435185185  35.7900641025641 33.7013888888889  36.7668269230769 33.7013888888889  C 37.7435897435897 33.7013888888889  38.5775240384615 34.0341435185185  39.2686298076923 34.6996527777778  Z M 12.3569711538462 7.58680555555556  C 13.2231570512821 8.42091049382716  13.65625 9.42361111111111  13.65625 10.5949074074074  C 13.65625 11.7662037037037  13.2231570512821 12.7689043209876  12.3569711538462 13.6030092592593  C 11.4907852564103 14.4371141975309  10.4495192307692 14.8541666666667  9.23317307692308 14.8541666666667  C 8.01682692307692 14.8541666666667  6.9755608974359 14.4371141975309  6.109375 13.6030092592593  C 5.2431891025641 12.7689043209876  4.81009615384615 11.7662037037037  4.81009615384615 10.5949074074074  C 4.81009615384615 9.42361111111111  5.2431891025641 8.42091049382716  6.109375 7.58680555555556  C 6.9755608974359 6.75270061728395  8.01682692307692 6.33564814814815  9.23317307692308 6.33564814814815  C 10.4495192307692 6.33564814814815  11.4907852564103 6.75270061728395  12.3569711538462 7.58680555555556  Z M 44.9633413461538 21.4427083333333  C 45.6544471153846 22.1082175925926  46 22.9112654320988  46 23.8518518518519  C 46 24.7924382716049  45.6544471153846 25.5954861111111  44.9633413461538 26.2609953703704  C 44.2722355769231 26.9265046296296  43.4383012820513 27.2592592592593  42.4615384615385 27.2592592592593  C 41.4847756410256 27.2592592592593  40.6508413461538 26.9265046296296  39.9597355769231 26.2609953703704  C 39.2686298076923 25.5954861111111  38.9230769230769 24.7924382716049  38.9230769230769 23.8518518518519  C 38.9230769230769 22.9112654320988  39.2686298076923 22.1082175925926  39.9597355769231 21.4427083333333  C 40.6508413461538 20.7771990740741  41.4847756410256 20.4444444444444  42.4615384615385 20.4444444444444  C 43.4383012820513 20.4444444444444  44.2722355769231 20.7771990740741  44.9633413461538 21.4427083333333  Z M 26.7596153846154 1.49074074074074  C 27.7916666666667 2.48456790123456  28.3076923076923 3.69135802469135  28.3076923076923 5.11111111111111  C 28.3076923076923 6.53086419753086  27.7916666666667 7.73765432098765  26.7596153846154 8.73148148148148  C 25.7275641025641 9.72530864197531  24.474358974359 10.2222222222222  23 10.2222222222222  C 21.525641025641 10.2222222222222  20.2724358974359 9.72530864197531  19.2403846153846 8.73148148148148  C 18.2083333333333 7.73765432098765  17.6923076923077 6.53086419753086  17.6923076923077 5.11111111111111  C 17.6923076923077 3.69135802469135  18.2083333333333 2.48456790123456  19.2403846153846 1.49074074074074  C 20.2724358974359 0.496913580246916  21.525641025641 0  23 0  C 24.474358974359 0  25.7275641025641 0.496913580246916  26.7596153846154 1.49074074074074  Z M 41.1346153846154 6.38888888888889  C 42.3509615384615 7.56018518518519  42.9591346153846 8.96219135802469  42.9591346153846 10.5949074074074  C 42.9591346153846 12.2453703703704  42.3509615384615 13.6518132716049  41.1346153846154 14.8142361111111  C 39.9182692307692 15.9766589506173  38.4623397435897 16.5578703703704  36.7668269230769 16.5578703703704  C 35.0528846153846 16.5578703703704  33.5923477564103 15.9766589506173  32.3852163461538 14.8142361111111  C 31.1780849358974 13.6518132716049  30.5745192307692 12.2453703703704  30.5745192307692 10.5949074074074  C 30.5745192307692 8.96219135802469  31.1780849358974 7.56018518518519  32.3852163461538 6.38888888888889  C 33.5923477564103 5.21759259259259  35.0528846153846 4.63194444444444  36.7668269230769 4.63194444444444  C 38.4623397435897 4.63194444444444  39.9182692307692 5.21759259259259  41.1346153846154 6.38888888888889  Z " fill-rule="nonzero" fill="url(#LinearGradient33)" stroke="none" transform="matrix(1 0 0 1 113 47 )" />
  </g>
</svg>