<?xml version="1.0" encoding="utf-8"?>
<svg version="1.1" xmlns:xlink="http://www.w3.org/1999/xlink" width="14px" height="14px" xmlns="http://www.w3.org/2000/svg">
  <g transform="matrix(1 0 0 1 -228 -502 )">
    <path d="M 10.41796875 6.79036458333333  C 10.47265625 6.84505208333333  10.5 6.91493055555555  10.5 7  C 10.5 7.08506944444444  10.47265625 7.15494791666667  10.41796875 7.20963541666667  L 7.50130208333333 10.1263020833333  C 7.44661458333333 10.1809895833333  7.37673611111111 10.2083333333333  7.29166666666667 10.2083333333333  C 7.21267361111111 10.2083333333333  7.14431423611111 10.1794704861111  7.08658854166667 10.1217447916667  C 7.02886284722222 10.0640190972222  7 9.99565972222222  7 9.91666666666667  L 7 8.16666666666667  L 3.79166666666667 8.16666666666667  C 3.71267361111111 8.16666666666667  3.64431423611111 8.13780381944444  3.58658854166667 8.080078125  C 3.52886284722222 8.02235243055556  3.5 7.95399305555556  3.5 7.875  L 3.5 6.125  C 3.5 6.04600694444444  3.52886284722222 5.97764756944444  3.58658854166667 5.919921875  C 3.64431423611111 5.86219618055556  3.71267361111111 5.83333333333333  3.79166666666667 5.83333333333333  L 7 5.83333333333333  L 7 4.08333333333333  C 7 3.99826388888889  7.02734375 3.92838541666667  7.08203125 3.87369791666667  C 7.13671875 3.81901041666667  7.20659722222222 3.79166666666667  7.29166666666667 3.79166666666667  C 7.36458333333333 3.79166666666667  7.4375 3.82204861111111  7.51041666666667 3.8828125  L 10.41796875 6.79036458333333  Z M 11.29296875 9.48828125  C 11.7365451388889 8.72873263888889  11.9583333333333 7.89930555555556  11.9583333333333 7  C 11.9583333333333 6.10069444444444  11.7365451388889 5.27126736111111  11.29296875 4.51171875  C 10.8493923611111 3.75217013888889  10.2478298611111 3.15060763888889  9.48828125 2.70703125  C 8.72873263888889 2.26345486111111  7.89930555555556 2.04166666666667  7 2.04166666666667  C 6.10069444444444 2.04166666666667  5.27126736111111 2.26345486111111  4.51171875 2.70703125  C 3.75217013888889 3.15060763888889  3.15060763888889 3.75217013888889  2.70703125 4.51171875  C 2.26345486111111 5.27126736111111  2.04166666666667 6.10069444444444  2.04166666666667 7  C 2.04166666666667 7.89930555555556  2.26345486111111 8.72873263888889  2.70703125 9.48828125  C 3.15060763888889 10.2478298611111  3.75217013888889 10.8493923611111  4.51171875 11.29296875  C 5.27126736111111 11.7365451388889  6.10069444444444 11.9583333333333  7 11.9583333333333  C 7.89930555555556 11.9583333333333  8.72873263888889 11.7365451388889  9.48828125 11.29296875  C 10.2478298611111 10.8493923611111  10.8493923611111 10.2478298611111  11.29296875 9.48828125  Z M 13.0611979166667 3.486328125  C 13.6870659722222 4.55881076388889  14 5.73003472222222  14 7  C 14 8.26996527777778  13.6870659722222 9.44118923611111  13.0611979166667 10.513671875  C 12.4353298611111 11.5861545138889  11.5861545138889 12.4353298611111  10.513671875 13.0611979166667  C 9.44118923611111 13.6870659722222  8.26996527777778 14  7 14  C 5.73003472222222 14  4.55881076388889 13.6870659722222  3.486328125 13.0611979166667  C 2.41384548611111 12.4353298611111  1.56467013888889 11.5861545138889  0.938802083333333 10.513671875  C 0.312934027777778 9.44118923611111  0 8.26996527777778  0 7  C 0 5.73003472222222  0.312934027777778 4.55881076388889  0.938802083333333 3.486328125  C 1.56467013888889 2.41384548611111  2.41384548611111 1.56467013888889  3.486328125 0.938802083333333  C 4.55881076388889 0.312934027777777  5.73003472222222 0  7 0  C 8.26996527777778 0  9.44118923611111 0.312934027777777  10.513671875 0.938802083333333  C 11.5861545138889 1.56467013888889  12.4353298611111 2.41384548611111  13.0611979166667 3.486328125  Z " fill-rule="nonzero" fill="#bcbcbc" stroke="none" transform="matrix(1 0 0 1 228 502 )" />
  </g>
</svg>